<svg width="264" height="264" viewBox="0 0 264 264" fill="none" xmlns="http://www.w3.org/2000/svg">
<circle cx="132" cy="132" r="131" fill="url(#paint0_radial_42_5)" stroke="url(#paint1_linear_42_5)" stroke-width="2"/>
<g filter="url(#filter0_dii_42_5)">
<path d="M50.4543 156V139.808L33.8143 108.64H44.6303L55.3823 129.696L66.1343 108.64H76.9503L60.3103 139.808V156H50.4543ZM101.96 156.64C98.5038 156.64 95.3038 155.979 92.3598 154.656C89.4584 153.333 87.1118 151.285 85.3198 148.512C83.5704 145.739 82.6958 142.133 82.6958 137.696V108.64H92.5518V137.696C92.5518 140.427 93.3198 142.731 94.8558 144.608C96.3918 146.443 98.7598 147.36 101.96 147.36C105.16 147.36 107.506 146.443 109 144.608C110.536 142.731 111.304 140.427 111.304 137.696V108.64H121.224V137.696C121.224 142.133 120.328 145.739 118.536 148.512C116.786 151.285 114.44 153.333 111.496 154.656C108.552 155.979 105.373 156.64 101.96 156.64ZM129.946 156V108.64H143.258L154.074 133.024L165.21 108.64H178.074V156H168.346V123.744L158.618 144.928H149.466L139.674 123.616V156H129.946ZM184.326 156L200.454 108.64H213.574L229.702 156H219.334L216.326 146.72H197.766L194.694 156H184.326ZM200.518 138.144H213.574L207.046 118.368L200.518 138.144Z" fill="#FF2A2A"/>
</g>
<defs>
<filter id="filter0_dii_42_5" x="30.8142" y="105.64" width="201.888" height="55" filterUnits="userSpaceOnUse" color-interpolation-filters="sRGB">
<feFlood flood-opacity="0" result="BackgroundImageFix"/>
<feColorMatrix in="SourceAlpha" type="matrix" values="0 0 0 0 0 0 0 0 0 0 0 0 0 0 0 0 0 0 127 0" result="hardAlpha"/>
<feOffset/>
<feGaussianBlur stdDeviation="1.5"/>
<feComposite in2="hardAlpha" operator="out"/>
<feColorMatrix type="matrix" values="0 0 0 0 1 0 0 0 0 1 0 0 0 0 1 0 0 0 0.47 0"/>
<feBlend mode="normal" in2="BackgroundImageFix" result="effect1_dropShadow_42_5"/>
<feBlend mode="normal" in="SourceGraphic" in2="effect1_dropShadow_42_5" result="shape"/>
<feColorMatrix in="SourceAlpha" type="matrix" values="0 0 0 0 0 0 0 0 0 0 0 0 0 0 0 0 0 0 127 0" result="hardAlpha"/>
<feOffset dx="2" dy="2"/>
<feGaussianBlur stdDeviation="2.95"/>
<feComposite in2="hardAlpha" operator="arithmetic" k2="-1" k3="1"/>
<feColorMatrix type="matrix" values="0 0 0 0 0 0 0 0 0 0 0 0 0 0 0 0 0 0 1 0"/>
<feBlend mode="normal" in2="shape" result="effect2_innerShadow_42_5"/>
<feColorMatrix in="SourceAlpha" type="matrix" values="0 0 0 0 0 0 0 0 0 0 0 0 0 0 0 0 0 0 127 0" result="hardAlpha"/>
<feOffset dy="4"/>
<feGaussianBlur stdDeviation="4.25"/>
<feComposite in2="hardAlpha" operator="arithmetic" k2="-1" k3="1"/>
<feColorMatrix type="matrix" values="0 0 0 0 0.305882 0 0 0 0 0.00392157 0 0 0 0 0.00392157 0 0 0 0.7 0"/>
<feBlend mode="normal" in2="effect2_innerShadow_42_5" result="effect3_innerShadow_42_5"/>
</filter>
<radialGradient id="paint0_radial_42_5" cx="0" cy="0" r="1" gradientUnits="userSpaceOnUse" gradientTransform="translate(157.5 161.5) rotate(-129.998) scale(190.584 200.577)">
<stop offset="0.254863" stop-color="#4E0101"/>
<stop offset="1" stop-color="#AC0808"/>
</radialGradient>
<linearGradient id="paint1_linear_42_5" x1="-4.36019e-09" y1="132.369" x2="264" y2="131.631" gradientUnits="userSpaceOnUse">
<stop offset="0.447174" stop-color="#E82828"/>
<stop offset="1" stop-color="#1BD19A"/>
</linearGradient>
</defs>
</svg>
